<mxfile host="app.diagrams.net" modified="2022-02-26T06:18:06.705Z" agent="5.0 (Windows NT 10.0; Win64; x64) AppleWebKit/537.36 (KHTML, like Gecko) Chrome/98.0.4758.102 Safari/537.36" etag="GprHgGBigFZ7vTvEhG11" version="16.5.5" type="github">
  <diagram id="C5RBs43oDa-KdzZeNtuy" name="Page-1">
    <mxGraphModel dx="1287" dy="804" grid="1" gridSize="10" guides="1" tooltips="1" connect="1" arrows="1" fold="1" page="1" pageScale="1" pageWidth="827" pageHeight="1169" math="0" shadow="0">
      <root>
        <mxCell id="WIyWlLk6GJQsqaUBKTNV-0" />
        <mxCell id="WIyWlLk6GJQsqaUBKTNV-1" parent="WIyWlLk6GJQsqaUBKTNV-0" />
        <mxCell id="Q3hz1GS3R7JDqrwMUC1e-0" value="main5.cpp" style="strokeWidth=2;html=1;shape=mxgraph.flowchart.start_1;whiteSpace=wrap;" vertex="1" parent="WIyWlLk6GJQsqaUBKTNV-1">
          <mxGeometry x="140" y="120" width="100" height="60" as="geometry" />
        </mxCell>
        <mxCell id="Q3hz1GS3R7JDqrwMUC1e-6" style="edgeStyle=orthogonalEdgeStyle;rounded=0;orthogonalLoop=1;jettySize=auto;html=1;entryX=0;entryY=0.25;entryDx=0;entryDy=0;" edge="1" parent="WIyWlLk6GJQsqaUBKTNV-1" source="Q3hz1GS3R7JDqrwMUC1e-3" target="Q3hz1GS3R7JDqrwMUC1e-5">
          <mxGeometry relative="1" as="geometry" />
        </mxCell>
        <mxCell id="Q3hz1GS3R7JDqrwMUC1e-3" value="read 10 records&lt;br&gt;from Emp" style="whiteSpace=wrap;html=1;aspect=fixed;" vertex="1" parent="WIyWlLk6GJQsqaUBKTNV-1">
          <mxGeometry x="130" y="260" width="120" height="120" as="geometry" />
        </mxCell>
        <mxCell id="Q3hz1GS3R7JDqrwMUC1e-7" style="edgeStyle=orthogonalEdgeStyle;rounded=0;orthogonalLoop=1;jettySize=auto;html=1;" edge="1" parent="WIyWlLk6GJQsqaUBKTNV-1" source="Q3hz1GS3R7JDqrwMUC1e-4" target="Q3hz1GS3R7JDqrwMUC1e-5">
          <mxGeometry relative="1" as="geometry" />
        </mxCell>
        <mxCell id="Q3hz1GS3R7JDqrwMUC1e-4" value="read 10 records&lt;br&gt;from Dept&lt;br&gt;" style="whiteSpace=wrap;html=1;aspect=fixed;" vertex="1" parent="WIyWlLk6GJQsqaUBKTNV-1">
          <mxGeometry x="130" y="410" width="120" height="120" as="geometry" />
        </mxCell>
        <mxCell id="Q3hz1GS3R7JDqrwMUC1e-5" value="" style="rounded=0;whiteSpace=wrap;html=1;" vertex="1" parent="WIyWlLk6GJQsqaUBKTNV-1">
          <mxGeometry x="354" y="260" width="206" height="270" as="geometry" />
        </mxCell>
      </root>
    </mxGraphModel>
  </diagram>
</mxfile>
